<svg width="114" height="31" viewBox="0 0 114 31" fill="none" xmlns="http://www.w3.org/2000/svg">
<g clip-path="url(#clip0_68_80)">
<path d="M35.4985 14.9033C35.4985 19.9718 38.7446 23.5058 43.2428 23.5058C47.741 23.5058 50.9871 19.9718 50.9871 14.9033C50.9871 9.83478 47.741 6.30078 43.2428 6.30078C38.7446 6.30078 35.4985 9.83478 35.4985 14.9033ZM48.0192 14.9033C48.0192 18.5303 46.0484 20.8785 43.2428 20.8785C40.4372 20.8785 38.4664 18.5303 38.4664 14.9033C38.4664 11.2763 40.4372 8.92803 43.2428 8.92803C46.0484 8.92803 48.0192 11.2763 48.0192 14.9033Z" fill="black"/>
<path d="M59.3446 23.5058C62.753 23.5058 64.7006 20.6228 64.7006 17.1585C64.7006 13.6943 62.753 10.8113 59.3446 10.8113C57.7679 10.8113 56.6086 11.439 55.8434 12.3458V11.0438H53.061V27.435H55.8434V21.9713C56.6086 22.878 57.7679 23.5058 59.3446 23.5058ZM55.7739 16.8098C55.7739 14.508 57.0723 13.2525 58.7881 13.2525C60.8053 13.2525 61.8951 14.8335 61.8951 17.1585C61.8951 19.4835 60.8053 21.0645 58.7881 21.0645C57.0723 21.0645 55.7739 19.7858 55.7739 17.5305V16.8098Z" fill="black"/>
<path d="M72.2304 23.5058C74.665 23.5058 76.5895 22.227 77.4474 20.088L75.0592 19.1813C74.6882 20.4368 73.5984 21.1343 72.2304 21.1343C70.4451 21.1343 69.193 19.8555 68.9843 17.763H77.5169V16.833C77.5169 13.485 75.6388 10.8113 72.1145 10.8113C68.5901 10.8113 66.3179 13.578 66.3179 17.1585C66.3179 20.925 68.7524 23.5058 72.2304 23.5058ZM72.0913 13.1595C73.8535 13.1595 74.6882 14.322 74.7114 15.6705H69.1234C69.5408 14.0198 70.6537 13.1595 72.0913 13.1595Z" fill="black"/>
<path d="M79.605 23.25H82.3874V16.089C82.3874 14.3453 83.6626 13.4153 84.9147 13.4153C86.445 13.4153 87.0478 14.508 87.0478 16.0193V23.25H89.8302V15.2055C89.8302 12.5783 88.2999 10.8113 85.7494 10.8113C84.1727 10.8113 83.083 11.532 82.3874 12.3458V11.0438H79.605V23.25Z" fill="black"/>
<path d="M97.9791 6.55652L91.6724 23.25H94.617L96.0314 19.437H103.219L104.657 23.25H107.648L101.341 6.55652H97.9791ZM99.6021 9.85802L102.245 16.833H97.0052L99.6021 9.85802Z" fill="black"/>
<path d="M112.424 6.60498H109.457V23.2985H112.424V6.60498Z" fill="black"/>
<path d="M28.6988 12.6877C29.4002 10.5768 29.1587 8.26443 28.037 6.34437C26.3502 3.39937 22.9592 1.88424 19.6474 2.59724C18.1741 0.932928 16.0574 -0.0135408 13.8382 2.17147e-05C10.453 -0.00772829 7.44942 2.17777 6.40796 5.40758C4.23326 5.85418 2.35613 7.21915 1.25767 9.15374C-0.441702 12.091 -0.0542955 15.7936 2.21604 18.3123C1.51465 20.4232 1.75618 22.7356 2.87782 24.6557C4.56464 27.6007 7.95565 29.1158 11.2674 28.4028C12.7398 30.0671 14.8575 31.0136 17.0766 30.9991C20.4638 31.0078 23.4683 28.8203 24.5098 25.5876C26.6845 25.141 28.5616 23.7761 29.6601 21.8415C31.3575 18.9042 30.9692 15.2046 28.6998 12.6858L28.6988 12.6877ZM17.0786 28.9734C15.7231 28.9753 14.4102 28.4997 13.3697 27.6288C13.417 27.6036 13.4991 27.5581 13.5523 27.5251L19.7083 23.9601C20.0232 23.7809 20.2165 23.4447 20.2145 23.0815V14.3792L22.8162 15.8856C22.8442 15.8991 22.8626 15.9263 22.8665 15.9573V23.1638C22.8626 26.3684 20.2744 28.9666 17.0786 28.9734ZM4.6313 23.6424C3.95213 22.4663 3.7077 21.0878 3.94053 19.7499C3.98594 19.7771 4.06613 19.8265 4.12313 19.8594L10.2791 23.4244C10.5912 23.6075 10.9776 23.6075 11.2906 23.4244L18.8059 19.0728V22.0856C18.8079 22.1166 18.7934 22.1466 18.7692 22.166L12.5466 25.7688C9.77482 27.3691 6.23503 26.4178 4.63226 23.6424H4.6313ZM3.01115 10.168C3.68742 8.99002 4.75496 8.08908 6.02635 7.62118C6.02635 7.67446 6.02345 7.76843 6.02345 7.8343V14.9653C6.02152 15.3276 6.21474 15.6637 6.52872 15.843L14.044 20.1936L11.4423 21.7C11.4162 21.7175 11.3834 21.7204 11.3544 21.7078L5.13077 18.1021C2.36482 16.4959 1.41611 12.9474 3.01018 10.169L3.01115 10.168ZM24.3871 15.1561L16.8718 10.8045L19.4735 9.29905C19.4996 9.28162 19.5324 9.27871 19.5614 9.2913L25.7851 12.8941C28.5558 14.4993 29.5055 18.0536 27.9047 20.832C27.2274 22.0081 26.1609 22.909 24.8905 23.3779V16.0338C24.8934 15.6715 24.7011 15.3363 24.3881 15.1561H24.3871ZM26.9763 11.2482C26.9309 11.2201 26.8507 11.1716 26.7937 11.1387L20.6377 7.57371C20.3256 7.39062 19.9392 7.39062 19.6262 7.57371L12.1109 11.9253V8.91252C12.1089 8.88152 12.1234 8.85149 12.1476 8.83212L18.3702 5.23224C21.142 3.62896 24.6856 4.58318 26.2836 7.36349C26.9589 8.53762 27.2033 9.91227 26.9743 11.2482H26.9763ZM10.6965 16.618L8.09381 15.1116C8.06579 15.098 8.04743 15.0709 8.04357 15.0399V7.83333C8.0455 4.62484 10.6414 2.02471 13.8411 2.02665C15.1947 2.02665 16.5047 2.50327 17.5452 3.37127C17.4978 3.39646 17.4167 3.44199 17.3626 3.47493L11.2066 7.03993C10.8916 7.21915 10.6984 7.55434 10.7003 7.91762L10.6965 16.616V16.618ZM12.1099 13.5625L15.4574 11.6241L18.805 13.5616V17.4375L15.4574 19.375L12.1099 17.4375V13.5625Z" fill="black"/>
</g>
<defs>
<clipPath id="clip0_68_80">
<rect width="114" height="31" fill="white"/>
</clipPath>
</defs>
</svg>
