<svg width="95" height="18" viewBox="0 0 95 18" fill="none" xmlns="http://www.w3.org/2000/svg">
<g clip-path="url(#clip0_35_4539)">
<path d="M2.94722 4.02589L6.38471 1.95032C7.37805 1.35054 8.62195 1.35054 9.61529 1.95033L13.0528 4.02596C13.9898 4.59173 14.5625 5.60653 14.5625 6.70111V11.3101C14.5625 12.4064 13.988 13.4227 13.0485 13.9878L9.61392 16.0542C8.62116 16.6514 7.37944 16.6504 6.38764 16.0515L2.94719 13.974C2.01019 13.4083 1.4375 12.3935 1.4375 11.2989V6.70106C1.4375 5.60648 2.0102 4.59168 2.94722 4.02589Z" stroke="black" stroke-width="1.875" stroke-linejoin="bevel"/>
<path d="M12.6875 9C12.6875 6.41117 10.5888 4.3125 8 4.3125C5.41116 4.3125 3.3125 6.41117 3.3125 9C3.3125 11.5888 5.41116 13.6875 8 13.6875C10.5888 13.6875 12.6875 11.5888 12.6875 9Z" fill="black"/>
</g>
<path d="M21.76 15V2.4H24.334L28.384 10.536L32.416 2.4H34.972V15H32.812V6.108L29.212 13.218H27.52L23.92 6.108V15H21.76ZM41.4884 15.216C40.6364 15.216 39.8804 15.012 39.2204 14.604C38.5724 14.196 38.0564 13.638 37.6724 12.93C37.3004 12.21 37.1144 11.394 37.1144 10.482C37.1144 9.57 37.3004 8.76 37.6724 8.052C38.0564 7.344 38.5784 6.786 39.2384 6.378C39.9104 5.97 40.6664 5.766 41.5064 5.766C42.1904 5.766 42.7844 5.898 43.2884 6.162C43.8044 6.426 44.2124 6.792 44.5124 7.26L44.6564 5.982H46.6724V15H44.6744L44.5304 13.686C44.2424 14.094 43.8524 14.454 43.3604 14.766C42.8684 15.066 42.2444 15.216 41.4884 15.216ZM41.9384 13.344C42.4544 13.344 42.9044 13.224 43.2884 12.984C43.6844 12.732 43.9904 12.396 44.2064 11.976C44.4344 11.544 44.5484 11.052 44.5484 10.5C44.5484 9.936 44.4344 9.444 44.2064 9.024C43.9904 8.592 43.6844 8.256 43.2884 8.016C42.8924 7.776 42.4364 7.656 41.9204 7.656C41.4284 7.656 40.9844 7.776 40.5884 8.016C40.1924 8.256 39.8804 8.592 39.6524 9.024C39.4364 9.444 39.3284 9.93 39.3284 10.482C39.3284 11.046 39.4364 11.544 39.6524 11.976C39.8804 12.396 40.1924 12.732 40.5884 12.984C40.9844 13.224 41.4344 13.344 41.9384 13.344ZM49.1827 15V5.982H51.3427V15H49.1827ZM50.2627 4.524C49.8667 4.524 49.5367 4.404 49.2727 4.164C49.0207 3.912 48.8947 3.606 48.8947 3.246C48.8947 2.874 49.0207 2.574 49.2727 2.346C49.5367 2.106 49.8667 1.986 50.2627 1.986C50.6587 1.986 50.9827 2.106 51.2347 2.346C51.4987 2.574 51.6307 2.874 51.6307 3.246C51.6307 3.606 51.4987 3.912 51.2347 4.164C50.9827 4.404 50.6587 4.524 50.2627 4.524ZM53.8212 15V5.982H55.7292L55.8732 7.512C56.1612 6.984 56.5632 6.564 57.0792 6.252C57.6072 5.928 58.2192 5.766 58.9152 5.766C59.6472 5.766 60.2712 5.922 60.7872 6.234C61.3032 6.534 61.6992 6.984 61.9752 7.584C62.2632 8.172 62.4072 8.91 62.4072 9.798V15H60.2472V9.996C60.2472 9.228 60.0792 8.64 59.7432 8.232C59.4192 7.812 58.9212 7.602 58.2492 7.602C57.8172 7.602 57.4272 7.71 57.0792 7.926C56.7312 8.13 56.4612 8.43 56.2692 8.826C56.0772 9.21 55.9812 9.684 55.9812 10.248V15H53.8212ZM64.6669 15V2.04H66.8269V15H64.6669ZM69.3097 15V5.982H71.4697V15H69.3097ZM70.3897 4.524C69.9937 4.524 69.6637 4.404 69.3997 4.164C69.1477 3.912 69.0217 3.606 69.0217 3.246C69.0217 2.874 69.1477 2.574 69.3997 2.346C69.6637 2.106 69.9937 1.986 70.3897 1.986C70.7857 1.986 71.1097 2.106 71.3617 2.346C71.6257 2.574 71.7577 2.874 71.7577 3.246C71.7577 3.606 71.6257 3.912 71.3617 4.164C71.1097 4.404 70.7857 4.524 70.3897 4.524ZM73.9482 15V5.982H75.8562L76.0002 7.512C76.2882 6.984 76.6902 6.564 77.2062 6.252C77.7342 5.928 78.3462 5.766 79.0422 5.766C79.7742 5.766 80.3982 5.922 80.9142 6.234C81.4302 6.534 81.8262 6.984 82.1022 7.584C82.3902 8.172 82.5342 8.91 82.5342 9.798V15H80.3742V9.996C80.3742 9.228 80.2062 8.64 79.8702 8.232C79.5462 7.812 79.0482 7.602 78.3762 7.602C77.9442 7.602 77.5542 7.71 77.2062 7.926C76.8582 8.13 76.5882 8.43 76.3962 8.826C76.2042 9.21 76.1082 9.684 76.1082 10.248V15H73.9482ZM89.0419 15.216C88.1539 15.216 87.3619 15.024 86.6659 14.64C85.9819 14.244 85.4419 13.698 85.0459 13.002C84.6619 12.294 84.4699 11.478 84.4699 10.554C84.4699 9.606 84.6619 8.778 85.0459 8.07C85.4299 7.35 85.9639 6.786 86.6479 6.378C87.3439 5.97 88.1479 5.766 89.0599 5.766C89.9479 5.766 90.7219 5.964 91.3819 6.36C92.0419 6.756 92.5519 7.284 92.9119 7.944C93.2839 8.604 93.4699 9.342 93.4699 10.158C93.4699 10.278 93.4639 10.41 93.4519 10.554C93.4519 10.698 93.4459 10.854 93.4339 11.022H86.0359V9.618H91.2919C91.2559 8.982 91.0279 8.478 90.6079 8.106C90.1999 7.722 89.6839 7.53 89.0599 7.53C88.6159 7.53 88.2019 7.632 87.8179 7.836C87.4459 8.04 87.1459 8.34 86.9179 8.736C86.7019 9.132 86.5939 9.63 86.5939 10.23V10.752C86.5939 11.316 86.7019 11.802 86.9179 12.21C87.1339 12.606 87.4219 12.912 87.7819 13.128C88.1539 13.332 88.5679 13.434 89.0239 13.434C89.5279 13.434 89.9419 13.326 90.2659 13.11C90.6019 12.894 90.8539 12.606 91.0219 12.246H93.1999C93.0439 12.798 92.7679 13.302 92.3719 13.758C91.9879 14.202 91.5139 14.556 90.9499 14.82C90.3979 15.084 89.7619 15.216 89.0419 15.216Z" fill="#09090B"/>
<defs>
<clipPath id="clip0_35_4539">
<rect width="15" height="17.5" fill="white" transform="translate(0.5 0.25)"/>
</clipPath>
</defs>
</svg>
