<svg width="358" height="272" viewBox="0 0 358 272" fill="none" xmlns="http://www.w3.org/2000/svg">
<rect width="507" height="294" rx="15" fill="#FAFAFA"/>
<rect x="0.5" y="0.5" width="506" height="293" rx="14.5" stroke="black" stroke-opacity="0.09"/>
<path d="M33.8022 27.8079H31.5444C31.48 27.4376 31.3613 27.1096 31.1882 26.8239C31.0152 26.5341 30.7998 26.2886 30.5423 26.0874C30.2847 25.8861 29.9909 25.7352 29.6609 25.6346C29.3349 25.5299 28.9827 25.4776 28.6044 25.4776C27.9323 25.4776 27.3366 25.6467 26.8175 25.9847C26.2983 26.3188 25.8918 26.8098 25.598 27.4577C25.3042 28.1017 25.1573 28.8885 25.1573 29.8182C25.1573 30.764 25.3042 31.5608 25.598 32.2088C25.8958 32.8527 26.3023 33.3397 26.8175 33.6697C27.3366 33.9957 27.9303 34.1587 28.5984 34.1587C28.9686 34.1587 29.3147 34.1104 29.6367 34.0138C29.9627 33.9132 30.2545 33.7663 30.5121 33.5732C30.7737 33.38 30.993 33.1425 31.1701 32.8608C31.3512 32.5791 31.476 32.2571 31.5444 31.8949L33.8022 31.907C33.7177 32.4946 33.5346 33.0459 33.2528 33.5611C32.9751 34.0762 32.6109 34.531 32.1602 34.9254C31.7094 35.3158 31.1822 35.6217 30.5785 35.843C29.9748 36.0604 29.3047 36.169 28.5682 36.169C27.4815 36.169 26.5116 35.9175 25.6584 35.4144C24.8052 34.9113 24.133 34.1849 23.642 33.2351C23.151 32.2853 22.9055 31.1463 22.9055 29.8182C22.9055 28.486 23.1531 27.3471 23.6481 26.4013C24.1431 25.4515 24.8172 24.725 25.6705 24.2219C26.5237 23.7189 27.4896 23.4673 28.5682 23.4673C29.2564 23.4673 29.8963 23.5639 30.4879 23.7571C31.0795 23.9503 31.6068 24.234 32.0696 24.6083C32.5324 24.9786 32.9128 25.4334 33.2106 25.9727C33.5124 26.5079 33.7096 27.1197 33.8022 27.8079ZM36.858 39.4773C36.5602 39.4773 36.2845 39.4531 36.0309 39.4048C35.7814 39.3606 35.5822 39.3082 35.4333 39.2479L35.9404 37.5455C36.2583 37.638 36.542 37.6823 36.7916 37.6783C37.0411 37.6742 37.2604 37.5958 37.4496 37.4428C37.6428 37.2939 37.8058 37.0444 37.9386 36.6942L38.1257 36.1932L34.7632 26.7273H37.0813L39.2184 33.7301H39.315L41.4581 26.7273H43.7823L40.0696 37.1229C39.8966 37.6139 39.6672 38.0344 39.3814 38.3846C39.0957 38.7388 38.7455 39.0084 38.331 39.1935C37.9205 39.3827 37.4295 39.4773 36.858 39.4773ZM48.6839 36.1811C47.7582 36.1811 46.9634 35.9779 46.2993 35.5714C45.6393 35.1649 45.1302 34.6035 44.772 33.8871C44.4178 33.1667 44.2407 32.3376 44.2407 31.3999C44.2407 30.4581 44.4218 29.627 44.784 28.9066C45.1463 28.1822 45.6574 27.6187 46.3174 27.2163C46.9815 26.8098 47.7663 26.6065 48.6718 26.6065C49.4244 26.6065 50.0905 26.7454 50.6701 27.0231C51.2536 27.2968 51.7185 27.6851 52.0646 28.1882C52.4107 28.6873 52.6079 29.2708 52.6562 29.9389H50.5674C50.4829 29.4922 50.2817 29.1199 49.9637 28.8221C49.6498 28.5202 49.2292 28.3693 48.702 28.3693C48.2553 28.3693 47.8629 28.4901 47.5248 28.7315C47.1867 28.969 46.9231 29.3111 46.734 29.7578C46.5488 30.2045 46.4563 30.7398 46.4563 31.3636C46.4563 31.9955 46.5488 32.5388 46.734 32.9936C46.9191 33.4444 47.1787 33.7925 47.5127 34.038C47.8508 34.2795 48.2472 34.4002 48.702 34.4002C49.024 34.4002 49.3117 34.3398 49.5653 34.2191C49.8229 34.0943 50.0382 33.9152 50.2112 33.6818C50.3843 33.4484 50.503 33.1647 50.5674 32.8306H52.6562C52.6039 33.4866 52.4107 34.0682 52.0767 34.5753C51.7426 35.0784 51.2878 35.4728 50.7123 35.7585C50.1368 36.0402 49.4607 36.1811 48.6839 36.1811ZM56.2961 23.6364V36H54.1107V23.6364H56.2961ZM62.3084 36.1811C61.3787 36.1811 60.5758 35.9879 59.8997 35.6016C59.2276 35.2112 58.7104 34.6598 58.3482 33.9474C57.986 33.2311 57.8049 32.3879 57.8049 31.418C57.8049 30.4641 57.986 29.627 58.3482 28.9066C58.7144 28.1822 59.2256 27.6187 59.8816 27.2163C60.5376 26.8098 61.3083 26.6065 62.1937 26.6065C62.7652 26.6065 63.3045 26.6991 63.8116 26.8842C64.3227 27.0653 64.7735 27.3471 65.1639 27.7294C65.5583 28.1117 65.8682 28.5987 66.0936 29.1903C66.3189 29.7779 66.4316 30.4782 66.4316 31.2912V31.9613H58.8311V30.4883H64.3368C64.3328 30.0697 64.2422 29.6974 64.0652 29.3714C63.8881 29.0414 63.6406 28.7818 63.3226 28.5927C63.0087 28.4035 62.6425 28.3089 62.2239 28.3089C61.7772 28.3089 61.3848 28.4176 61.0467 28.6349C60.7086 28.8482 60.445 29.13 60.2559 29.4801C60.0707 29.8262 59.9761 30.2066 59.9721 30.6211V31.907C59.9721 32.4463 60.0707 32.9091 60.2679 33.2955C60.4651 33.6778 60.7408 33.9716 61.095 34.1768C61.4492 34.3781 61.8637 34.4787 62.3386 34.4787C62.6565 34.4787 62.9443 34.4344 63.2019 34.3459C63.4595 34.2533 63.6828 34.1185 63.872 33.9414C64.0611 33.7643 64.204 33.545 64.3006 33.2834L66.3411 33.5128C66.2123 34.0521 65.9668 34.523 65.6046 34.9254C65.2464 35.3239 64.7876 35.6338 64.2282 35.8551C63.6687 36.0724 63.0288 36.1811 62.3084 36.1811ZM76.2302 36.169C75.3609 36.169 74.5882 36.0201 73.9121 35.7223C73.2399 35.4245 72.7087 35.0099 72.3183 34.4787C71.9279 33.9474 71.7207 33.3337 71.6965 32.6374H73.9664C73.9865 32.9715 74.0972 33.2633 74.2984 33.5128C74.4997 33.7583 74.7673 33.9495 75.1013 34.0863C75.4354 34.2231 75.8097 34.2915 76.2242 34.2915C76.6669 34.2915 77.0593 34.2151 77.4014 34.0621C77.7435 33.9052 78.0111 33.6879 78.2043 33.4102C78.3975 33.1325 78.4921 32.8125 78.4881 32.4503C78.4921 32.076 78.3955 31.746 78.1983 31.4602C78.0011 31.1745 77.7153 30.9511 77.341 30.7901C76.9708 30.6291 76.524 30.5487 76.0008 30.5487H74.9082V28.8221H76.0008C76.4315 28.8221 76.8078 28.7476 77.1297 28.5987C77.4557 28.4498 77.7113 28.2405 77.8964 27.9709C78.0816 27.6972 78.1721 27.3813 78.1681 27.0231C78.1721 26.6729 78.0936 26.3691 77.9327 26.1115C77.7757 25.8499 77.5523 25.6467 77.2626 25.5018C76.9768 25.3569 76.6408 25.2844 76.2544 25.2844C75.8761 25.2844 75.5259 25.3529 75.204 25.4897C74.882 25.6265 74.6224 25.8217 74.4252 26.0753C74.228 26.3248 74.1234 26.6226 74.1113 26.9688H71.9561C71.9722 26.2765 72.1714 25.6688 72.5537 25.1456C72.9401 24.6184 73.4553 24.2079 74.0992 23.9141C74.7431 23.6162 75.4656 23.4673 76.2665 23.4673C77.0915 23.4673 77.8079 23.6223 78.4156 23.9322C79.0274 24.238 79.5002 24.6506 79.8343 25.1697C80.1683 25.6889 80.3354 26.2624 80.3354 26.8903C80.3394 27.5865 80.1341 28.1701 79.7196 28.641C79.3091 29.1119 78.7698 29.4197 78.1017 29.5646V29.6612C78.971 29.782 79.6371 30.1039 80.0999 30.6271C80.5668 31.1463 80.7982 31.7923 80.7942 32.565C80.7942 33.2572 80.597 33.877 80.2025 34.4244C79.8122 34.9677 79.2729 35.3943 78.5846 35.7042C77.9005 36.0141 77.1157 36.169 76.2302 36.169ZM82.9791 36L88.2373 25.5923V25.5078H82.1339V23.6364H90.5555V25.5501L85.3033 36H82.9791Z" fill="#09090B"/>
<rect x="22" y="59" width="8" height="8" rx="2" fill="#D9D9D9"/>
<path d="M41.6719 60.4929C41.6188 60.0223 41.4001 59.6577 41.0156 59.3991C40.6312 59.1373 40.1473 59.0064 39.5639 59.0064C39.1463 59.0064 38.785 59.0727 38.4801 59.2053C38.1752 59.3345 37.9382 59.5135 37.7692 59.7422C37.6035 59.9676 37.5206 60.2244 37.5206 60.5128C37.5206 60.7547 37.5769 60.9635 37.6896 61.1392C37.8056 61.3149 37.9564 61.4624 38.142 61.5817C38.331 61.6977 38.5331 61.7955 38.7486 61.875C38.964 61.9512 39.1712 62.0142 39.37 62.0639L40.3643 62.3224C40.6892 62.402 41.0223 62.5097 41.3636 62.6456C41.705 62.7815 42.0215 62.9605 42.3132 63.1825C42.6049 63.4046 42.8402 63.6797 43.0192 64.0078C43.2015 64.3359 43.2926 64.7287 43.2926 65.1861C43.2926 65.7628 43.1435 66.2749 42.8452 66.7223C42.5502 67.1697 42.121 67.5227 41.5575 67.7812C40.9974 68.0398 40.3196 68.169 39.5241 68.169C38.7618 68.169 38.1023 68.0481 37.5455 67.8061C36.9886 67.5642 36.5528 67.2211 36.2379 66.777C35.9231 66.3295 35.7491 65.7992 35.7159 65.1861H37.2571C37.2869 65.554 37.4063 65.8606 37.6151 66.1058C37.8272 66.3478 38.0973 66.5284 38.4254 66.6477C38.7569 66.7637 39.1198 66.8217 39.5142 66.8217C39.9484 66.8217 40.3345 66.7538 40.6726 66.6179C41.014 66.4787 41.2824 66.2865 41.478 66.0412C41.6735 65.7926 41.7713 65.5026 41.7713 65.1712C41.7713 64.8696 41.6851 64.6226 41.5128 64.4304C41.3438 64.2382 41.1134 64.0791 40.8217 63.9531C40.5334 63.8272 40.2069 63.7161 39.8423 63.62L38.6392 63.2919C37.8239 63.0698 37.1776 62.7434 36.7003 62.3125C36.2263 61.8816 35.9893 61.3116 35.9893 60.6023C35.9893 60.0156 36.1484 59.5036 36.4666 59.0661C36.7848 58.6286 37.2157 58.2888 37.7592 58.0469C38.3028 57.8016 38.916 57.679 39.5987 57.679C40.2881 57.679 40.8963 57.8 41.4233 58.0419C41.9536 58.2839 42.3712 58.617 42.6761 59.0412C42.9811 59.4621 43.1402 59.946 43.1534 60.4929H41.6719ZM47.9457 68.1541C47.2066 68.1541 46.5702 67.9867 46.0366 67.652C45.5063 67.3139 45.0986 66.8482 44.8136 66.255C44.5285 65.6617 44.386 64.9822 44.386 64.2166C44.386 63.4411 44.5318 62.7566 44.8235 62.1634C45.1152 61.5668 45.5262 61.1011 46.0565 60.7663C46.5868 60.4316 47.2115 60.2642 47.9308 60.2642C48.5108 60.2642 49.0278 60.3719 49.4819 60.5874C49.936 60.7995 50.3022 61.0978 50.5806 61.4822C50.8623 61.8667 51.0297 62.3158 51.0827 62.8295H49.636C49.5565 62.4716 49.3742 62.1634 49.0891 61.9048C48.8074 61.6463 48.4296 61.517 47.9556 61.517C47.5413 61.517 47.1784 61.6264 46.8668 61.8452C46.5586 62.0606 46.3183 62.3688 46.146 62.7699C45.9736 63.1676 45.8874 63.6383 45.8874 64.1818C45.8874 64.7386 45.972 65.2192 46.141 65.6236C46.31 66.0279 46.5487 66.3411 46.8569 66.5632C47.1684 66.7853 47.5347 66.8963 47.9556 66.8963C48.2373 66.8963 48.4925 66.8449 48.7212 66.7422C48.9533 66.6361 49.1471 66.4853 49.3029 66.2898C49.462 66.0942 49.573 65.8589 49.636 65.5838H51.0827C51.0297 66.0777 50.869 66.5185 50.6005 66.9062C50.332 67.294 49.9724 67.599 49.5217 67.821C49.0742 68.0431 48.5489 68.1541 47.9457 68.1541ZM55.609 68.1541C54.8931 68.1541 54.2684 67.9901 53.7347 67.6619C53.2011 67.3338 52.7868 66.8748 52.4918 66.2848C52.1969 65.6948 52.0494 65.0054 52.0494 64.2166C52.0494 63.4245 52.1969 62.7318 52.4918 62.1385C52.7868 61.5452 53.2011 61.0845 53.7347 60.7564C54.2684 60.4283 54.8931 60.2642 55.609 60.2642C56.3249 60.2642 56.9497 60.4283 57.4833 60.7564C58.0169 61.0845 58.4312 61.5452 58.7262 62.1385C59.0212 62.7318 59.1687 63.4245 59.1687 64.2166C59.1687 65.0054 59.0212 65.6948 58.7262 66.2848C58.4312 66.8748 58.0169 67.3338 57.4833 67.6619C56.9497 67.9901 56.3249 68.1541 55.609 68.1541ZM55.614 66.9062C56.078 66.9062 56.4625 66.7836 56.7674 66.5384C57.0723 66.2931 57.2977 65.9666 57.4436 65.5589C57.5927 65.1513 57.6673 64.7022 57.6673 64.2116C57.6673 63.7244 57.5927 63.277 57.4436 62.8693C57.2977 62.4583 57.0723 62.1286 56.7674 61.88C56.4625 61.6314 56.078 61.5071 55.614 61.5071C55.1467 61.5071 54.7589 61.6314 54.4507 61.88C54.1457 62.1286 53.9187 62.4583 53.7695 62.8693C53.6237 63.277 53.5508 63.7244 53.5508 64.2116C53.5508 64.7022 53.6237 65.1513 53.7695 65.5589C53.9187 65.9666 54.1457 66.2931 54.4507 66.5384C54.7589 66.7836 55.1467 66.9062 55.614 66.9062ZM60.548 70.8636V60.3636H61.9997V61.6016H62.124C62.2101 61.4425 62.3344 61.2585 62.4968 61.0497C62.6592 60.8409 62.8846 60.6586 63.173 60.5028C63.4613 60.3438 63.8425 60.2642 64.3164 60.2642C64.9329 60.2642 65.4831 60.42 65.967 60.7315C66.4509 61.0431 66.8304 61.4922 67.1055 62.0788C67.3839 62.6655 67.5231 63.3714 67.5231 64.1967C67.5231 65.022 67.3856 65.7296 67.1105 66.3196C66.8354 66.9062 66.4575 67.3587 65.9769 67.6768C65.4964 67.9917 64.9478 68.1491 64.3313 68.1491C63.8673 68.1491 63.4878 68.0713 63.1928 67.9155C62.9012 67.7597 62.6725 67.5774 62.5068 67.3686C62.341 67.1598 62.2134 66.9742 62.124 66.8118H62.0345V70.8636H60.548ZM62.0046 64.1818C62.0046 64.7187 62.0825 65.1894 62.2383 65.5938C62.3941 65.9981 62.6195 66.3146 62.9144 66.5433C63.2094 66.7687 63.5707 66.8814 63.9982 66.8814C64.4424 66.8814 64.8136 66.7637 65.1119 66.5284C65.4102 66.2898 65.6356 65.9666 65.788 65.5589C65.9438 65.1513 66.0217 64.6922 66.0217 64.1818C66.0217 63.678 65.9455 63.2256 65.793 62.8246C65.6438 62.4235 65.4185 62.107 65.1169 61.875C64.8186 61.643 64.4457 61.527 63.9982 61.527C63.5674 61.527 63.2028 61.638 62.9045 61.8601C62.6095 62.0821 62.3858 62.392 62.2333 62.7898C62.0809 63.1875 62.0046 63.6515 62.0046 64.1818ZM72.1998 68.1541C71.4474 68.1541 70.7994 67.9934 70.2559 67.6719C69.7156 67.3471 69.298 66.8913 69.003 66.3047C68.7114 65.7147 68.5655 65.0237 68.5655 64.2315C68.5655 63.4493 68.7114 62.7599 69.003 62.1634C69.298 61.5668 69.709 61.1011 70.236 60.7663C70.7663 60.4316 71.3861 60.2642 72.0954 60.2642C72.5262 60.2642 72.9439 60.3355 73.3482 60.478C73.7526 60.6205 74.1155 60.8442 74.437 61.1491C74.7585 61.4541 75.012 61.8501 75.1977 62.3374C75.3833 62.8213 75.4761 63.4096 75.4761 64.1023V64.6293H69.4057V63.5156H74.0194C74.0194 63.1245 73.9398 62.7782 73.7807 62.4766C73.6217 62.1716 73.3979 61.9313 73.1096 61.7557C72.8245 61.58 72.4898 61.4922 72.1053 61.4922C71.6877 61.4922 71.3231 61.5949 71.0116 61.8004C70.7033 62.0026 70.4647 62.2678 70.2957 62.5959C70.1299 62.9207 70.0471 63.2737 70.0471 63.6548V64.5249C70.0471 65.0353 70.1366 65.4695 70.3155 65.8274C70.4978 66.1854 70.7514 66.4588 71.0762 66.6477C71.401 66.8333 71.7805 66.9261 72.2147 66.9261C72.4964 66.9261 72.7533 66.8864 72.9853 66.8068C73.2173 66.724 73.4178 66.6013 73.5869 66.4389C73.7559 66.2765 73.8852 66.076 73.9746 65.8374L75.3816 66.0909C75.2689 66.5052 75.0667 66.8681 74.7751 67.1797C74.4867 67.4879 74.1238 67.7282 73.6863 67.9006C73.2521 68.0696 72.7566 68.1541 72.1998 68.1541Z" fill="#7D7D7D"/>
<rect x="93" y="59" width="8" height="8" rx="2" fill="#EA9745"/>
<path d="M112.672 60.4929C112.619 60.0223 112.4 59.6577 112.016 59.3991C111.631 59.1373 111.147 59.0064 110.564 59.0064C110.146 59.0064 109.785 59.0727 109.48 59.2053C109.175 59.3345 108.938 59.5135 108.769 59.7422C108.603 59.9676 108.521 60.2244 108.521 60.5128C108.521 60.7547 108.577 60.9635 108.69 61.1392C108.806 61.3149 108.956 61.4624 109.142 61.5817C109.331 61.6977 109.533 61.7955 109.749 61.875C109.964 61.9512 110.171 62.0142 110.37 62.0639L111.364 62.3224C111.689 62.402 112.022 62.5097 112.364 62.6456C112.705 62.7815 113.022 62.9605 113.313 63.1825C113.605 63.4046 113.84 63.6797 114.019 64.0078C114.201 64.3359 114.293 64.7287 114.293 65.1861C114.293 65.7628 114.143 66.2749 113.845 66.7223C113.55 67.1697 113.121 67.5227 112.558 67.7812C111.997 68.0398 111.32 68.169 110.524 68.169C109.762 68.169 109.102 68.0481 108.545 67.8061C107.989 67.5642 107.553 67.2211 107.238 66.777C106.923 66.3295 106.749 65.7992 106.716 65.1861H108.257C108.287 65.554 108.406 65.8606 108.615 66.1058C108.827 66.3478 109.097 66.5284 109.425 66.6477C109.757 66.7637 110.12 66.8217 110.514 66.8217C110.948 66.8217 111.335 66.7538 111.673 66.6179C112.014 66.4787 112.282 66.2865 112.478 66.0412C112.674 65.7926 112.771 65.5026 112.771 65.1712C112.771 64.8696 112.685 64.6226 112.513 64.4304C112.344 64.2382 112.113 64.0791 111.822 63.9531C111.533 63.8272 111.207 63.7161 110.842 63.62L109.639 63.2919C108.824 63.0698 108.178 62.7434 107.7 62.3125C107.226 61.8816 106.989 61.3116 106.989 60.6023C106.989 60.0156 107.148 59.5036 107.467 59.0661C107.785 58.6286 108.216 58.2888 108.759 58.0469C109.303 57.8016 109.916 57.679 110.599 57.679C111.288 57.679 111.896 57.8 112.423 58.0419C112.954 58.2839 113.371 58.617 113.676 59.0412C113.981 59.4621 114.14 59.946 114.153 60.4929H112.672ZM119.294 60.3636V61.5568H115.123V60.3636H119.294ZM116.241 58.5341H117.728V65.7578C117.728 66.0462 117.771 66.2633 117.857 66.4091C117.943 66.5516 118.054 66.6494 118.19 66.7024C118.329 66.7521 118.48 66.777 118.642 66.777C118.762 66.777 118.866 66.7687 118.956 66.7521C119.045 66.7356 119.115 66.7223 119.164 66.7124L119.433 67.9403C119.347 67.9735 119.224 68.0066 119.065 68.0398C118.906 68.0762 118.707 68.0961 118.468 68.0994C118.077 68.1061 117.713 68.0365 117.375 67.8906C117.037 67.7448 116.763 67.5194 116.554 67.2145C116.346 66.9096 116.241 66.5268 116.241 66.0661V58.5341ZM122.88 68.169C122.396 68.169 121.959 68.0795 121.568 67.9006C121.177 67.7183 120.867 67.4548 120.638 67.1101C120.413 66.7654 120.3 66.3428 120.3 65.8423C120.3 65.4115 120.383 65.0568 120.549 64.7784C120.714 64.5 120.938 64.2796 121.22 64.1172C121.502 63.9548 121.816 63.8321 122.164 63.7493C122.512 63.6664 122.867 63.6035 123.228 63.5604C123.686 63.5073 124.057 63.4643 124.342 63.4311C124.627 63.3946 124.834 63.3366 124.963 63.2571C125.093 63.1776 125.157 63.0483 125.157 62.8693V62.8345C125.157 62.4003 125.035 62.0639 124.789 61.8253C124.547 61.5866 124.186 61.4673 123.706 61.4673C123.205 61.4673 122.811 61.5784 122.522 61.8004C122.237 62.0192 122.04 62.2628 121.931 62.5312L120.534 62.2131C120.699 61.7491 120.941 61.3745 121.26 61.0895C121.581 60.8011 121.951 60.5923 122.368 60.4631C122.786 60.3305 123.225 60.2642 123.686 60.2642C123.991 60.2642 124.314 60.3007 124.655 60.3736C125 60.4432 125.321 60.5724 125.62 60.7614C125.921 60.9503 126.168 61.2204 126.36 61.5717C126.553 61.9197 126.649 62.3722 126.649 62.929V68H125.197V66.956H125.137C125.041 67.1482 124.897 67.3371 124.705 67.5227C124.513 67.7083 124.266 67.8625 123.964 67.9851C123.663 68.1077 123.301 68.169 122.88 68.169ZM123.203 66.9759C123.614 66.9759 123.966 66.8946 124.257 66.7322C124.552 66.5698 124.776 66.3577 124.929 66.0959C125.084 65.8307 125.162 65.5473 125.162 65.2457V64.2614C125.109 64.3144 125.007 64.3641 124.854 64.4105C124.705 64.4536 124.534 64.4917 124.342 64.5249C124.15 64.5547 123.962 64.5829 123.78 64.6094C123.598 64.6326 123.445 64.6525 123.323 64.669C123.034 64.7055 122.771 64.7668 122.532 64.853C122.297 64.9392 122.108 65.0634 121.966 65.2259C121.826 65.3849 121.757 65.5971 121.757 65.8622C121.757 66.2301 121.893 66.5085 122.164 66.6974C122.436 66.883 122.783 66.9759 123.203 66.9759ZM128.349 68V60.3636H129.786V61.5767H129.865C130.004 61.1657 130.25 60.8426 130.601 60.6072C130.956 60.3686 131.357 60.2493 131.804 60.2493C131.897 60.2493 132.006 60.2526 132.132 60.2592C132.261 60.2659 132.362 60.2741 132.435 60.2841V61.706C132.376 61.6894 132.27 61.6712 132.117 61.6513C131.965 61.6281 131.812 61.6165 131.66 61.6165C131.308 61.6165 130.995 61.6911 130.72 61.8402C130.448 61.986 130.233 62.1899 130.074 62.4517C129.915 62.7102 129.835 63.0052 129.835 63.3366V68H128.349ZM137.458 60.3636V61.5568H133.286V60.3636H137.458ZM134.405 58.5341H135.892V65.7578C135.892 66.0462 135.935 66.2633 136.021 66.4091C136.107 66.5516 136.218 66.6494 136.354 66.7024C136.493 66.7521 136.644 66.777 136.806 66.777C136.926 66.777 137.03 66.7687 137.12 66.7521C137.209 66.7356 137.279 66.7223 137.328 66.7124L137.597 67.9403C137.511 67.9735 137.388 68.0066 137.229 68.0398C137.07 68.0762 136.871 68.0961 136.632 68.0994C136.241 68.1061 135.877 68.0365 135.539 67.8906C135.2 67.7448 134.927 67.5194 134.718 67.2145C134.509 66.9096 134.405 66.5268 134.405 66.0661V58.5341ZM142.031 68.1541C141.279 68.1541 140.631 67.9934 140.087 67.6719C139.547 67.3471 139.129 66.8913 138.834 66.3047C138.543 65.7147 138.397 65.0237 138.397 64.2315C138.397 63.4493 138.543 62.7599 138.834 62.1634C139.129 61.5668 139.54 61.1011 140.067 60.7663C140.598 60.4316 141.217 60.2642 141.927 60.2642C142.358 60.2642 142.775 60.3355 143.18 60.478C143.584 60.6205 143.947 60.8442 144.268 61.1491C144.59 61.4541 144.843 61.8501 145.029 62.3374C145.215 62.8213 145.307 63.4096 145.307 64.1023V64.6293H139.237V63.5156H143.851C143.851 63.1245 143.771 62.7782 143.612 62.4766C143.453 62.1716 143.229 61.9313 142.941 61.7557C142.656 61.58 142.321 61.4922 141.937 61.4922C141.519 61.4922 141.154 61.5949 140.843 61.8004C140.535 62.0026 140.296 62.2678 140.127 62.5959C139.961 62.9207 139.878 63.2737 139.878 63.6548V64.5249C139.878 65.0353 139.968 65.4695 140.147 65.8274C140.329 66.1854 140.583 66.4588 140.908 66.6477C141.232 66.8333 141.612 66.9261 142.046 66.9261C142.328 66.9261 142.585 66.8864 142.817 66.8068C143.049 66.724 143.249 66.6013 143.418 66.4389C143.587 66.2765 143.716 66.076 143.806 65.8374L145.213 66.0909C145.1 66.5052 144.898 66.8681 144.606 67.1797C144.318 67.4879 143.955 67.7282 143.518 67.9006C143.083 68.0696 142.588 68.1541 142.031 68.1541ZM149.535 68.1491C148.919 68.1491 148.369 67.9917 147.885 67.6768C147.404 67.3587 147.026 66.9062 146.751 66.3196C146.48 65.7296 146.344 65.022 146.344 64.1967C146.344 63.3714 146.481 62.6655 146.756 62.0788C147.035 61.4922 147.416 61.0431 147.9 60.7315C148.384 60.42 148.932 60.2642 149.545 60.2642C150.019 60.2642 150.4 60.3438 150.689 60.5028C150.98 60.6586 151.206 60.8409 151.365 61.0497C151.527 61.2585 151.653 61.4425 151.743 61.6016H151.832V57.8182H153.319V68H151.867V66.8118H151.743C151.653 66.9742 151.524 67.1598 151.355 67.3686C151.189 67.5774 150.961 67.7597 150.669 67.9155C150.377 68.0713 149.999 68.1491 149.535 68.1491ZM149.864 66.8814C150.291 66.8814 150.652 66.7687 150.947 66.5433C151.246 66.3146 151.471 65.9981 151.623 65.5938C151.779 65.1894 151.857 64.7187 151.857 64.1818C151.857 63.6515 151.781 63.1875 151.628 62.7898C151.476 62.392 151.252 62.0821 150.957 61.8601C150.662 61.638 150.298 61.527 149.864 61.527C149.416 61.527 149.043 61.643 148.745 61.875C148.447 62.107 148.221 62.4235 148.069 62.8246C147.92 63.2256 147.845 63.678 147.845 64.1818C147.845 64.6922 147.921 65.1513 148.074 65.5589C148.226 65.9666 148.452 66.2898 148.75 66.5284C149.051 66.7637 149.423 66.8814 149.864 66.8814Z" fill="#7D7D7D"/>
<rect x="171" y="59" width="8" height="8" rx="2" fill="#6B8FDB"/>
<path d="M193.575 61.1293H192.024C191.964 60.7978 191.853 60.5062 191.691 60.2543C191.529 60.0024 191.33 59.7886 191.094 59.6129C190.859 59.4373 190.596 59.3047 190.304 59.2152C190.016 59.1257 189.709 59.081 189.384 59.081C188.798 59.081 188.272 59.2285 187.808 59.5234C187.348 59.8184 186.983 60.2509 186.714 60.821C186.449 61.3911 186.317 62.0871 186.317 62.9091C186.317 63.7377 186.449 64.437 186.714 65.0071C186.983 65.5772 187.349 66.008 187.813 66.2997C188.277 66.5914 188.799 66.7372 189.379 66.7372C189.701 66.7372 190.006 66.6941 190.294 66.608C190.586 66.5185 190.849 66.3875 191.085 66.2152C191.32 66.0429 191.519 65.8324 191.681 65.5838C191.847 65.3319 191.961 65.0436 192.024 64.7188L193.575 64.7237C193.492 65.2242 193.332 65.6849 193.093 66.1058C192.858 66.5234 192.554 66.8847 192.183 67.1896C191.815 67.4912 191.394 67.7249 190.92 67.8906C190.446 68.0563 189.929 68.1392 189.369 68.1392C188.488 68.1392 187.702 67.9304 187.013 67.5128C186.323 67.0919 185.78 66.4903 185.382 65.7081C184.988 64.9259 184.79 63.9929 184.79 62.9091C184.79 61.822 184.989 60.889 185.387 60.1101C185.785 59.3279 186.328 58.728 187.018 58.3104C187.707 57.8894 188.491 57.679 189.369 57.679C189.91 57.679 190.413 57.7569 190.881 57.9126C191.351 58.0651 191.774 58.2905 192.148 58.5888C192.523 58.8838 192.833 59.245 193.078 59.6726C193.323 60.0968 193.489 60.5824 193.575 61.1293ZM198.231 68.1541C197.515 68.1541 196.89 67.9901 196.357 67.6619C195.823 67.3338 195.409 66.8748 195.114 66.2848C194.819 65.6948 194.671 65.0054 194.671 64.2166C194.671 63.4245 194.819 62.7318 195.114 62.1385C195.409 61.5452 195.823 61.0845 196.357 60.7564C196.89 60.4283 197.515 60.2642 198.231 60.2642C198.947 60.2642 199.572 60.4283 200.105 60.7564C200.639 61.0845 201.053 61.5452 201.348 62.1385C201.643 62.7318 201.79 63.4245 201.79 64.2166C201.79 65.0054 201.643 65.6948 201.348 66.2848C201.053 66.8748 200.639 67.3338 200.105 67.6619C199.572 67.9901 198.947 68.1541 198.231 68.1541ZM198.236 66.9062C198.7 66.9062 199.084 66.7836 199.389 66.5384C199.694 66.2931 199.92 65.9666 200.065 65.5589C200.214 65.1513 200.289 64.7022 200.289 64.2116C200.289 63.7244 200.214 63.277 200.065 62.8693C199.92 62.4583 199.694 62.1286 199.389 61.88C199.084 61.6314 198.7 61.5071 198.236 61.5071C197.768 61.5071 197.381 61.6314 197.072 61.88C196.768 62.1286 196.54 62.4583 196.391 62.8693C196.246 63.277 196.173 63.7244 196.173 64.2116C196.173 64.7022 196.246 65.1513 196.391 65.5589C196.54 65.9666 196.768 66.2931 197.072 66.5384C197.381 66.7836 197.768 66.9062 198.236 66.9062ZM203.17 68V60.3636H204.597V61.6065H204.691C204.85 61.1856 205.11 60.8575 205.472 60.6222C205.833 60.3835 206.265 60.2642 206.769 60.2642C207.28 60.2642 207.707 60.3835 208.052 60.6222C208.4 60.8608 208.657 61.1889 208.822 61.6065H208.902C209.084 61.1989 209.374 60.8741 209.772 60.6321C210.17 60.3868 210.644 60.2642 211.194 60.2642C211.887 60.2642 212.452 60.4813 212.889 60.9155C213.33 61.3497 213.55 62.0043 213.55 62.8793V68H212.064V63.0185C212.064 62.5014 211.923 62.1269 211.641 61.8949C211.36 61.6629 211.023 61.5469 210.632 61.5469C210.148 61.5469 209.772 61.696 209.504 61.9943C209.235 62.2893 209.101 62.6688 209.101 63.1328V68H207.619V62.924C207.619 62.5097 207.49 62.1766 207.232 61.9247C206.973 61.6728 206.637 61.5469 206.222 61.5469C205.941 61.5469 205.68 61.6214 205.442 61.7706C205.206 61.9164 205.016 62.1203 204.87 62.3821C204.728 62.6439 204.656 62.9472 204.656 63.2919V68H203.17ZM215.263 70.8636V60.3636H216.715V61.6016H216.839C216.925 61.4425 217.049 61.2585 217.212 61.0497C217.374 60.8409 217.599 60.6586 217.888 60.5028C218.176 60.3438 218.557 60.2642 219.031 60.2642C219.648 60.2642 220.198 60.42 220.682 60.7315C221.166 61.0431 221.545 61.4922 221.82 62.0788C222.099 62.6655 222.238 63.3714 222.238 64.1967C222.238 65.022 222.1 65.7296 221.825 66.3196C221.55 66.9062 221.172 67.3587 220.692 67.6768C220.211 67.9917 219.663 68.1491 219.046 68.1491C218.582 68.1491 218.203 68.0713 217.908 67.9155C217.616 67.7597 217.387 67.5774 217.222 67.3686C217.056 67.1598 216.928 66.9742 216.839 66.8118H216.749V70.8636H215.263ZM216.719 64.1818C216.719 64.7187 216.797 65.1894 216.953 65.5938C217.109 65.9981 217.334 66.3146 217.629 66.5433C217.924 66.7687 218.286 66.8814 218.713 66.8814C219.157 66.8814 219.528 66.7637 219.827 66.5284C220.125 66.2898 220.35 65.9666 220.503 65.5589C220.659 65.1513 220.737 64.6922 220.737 64.1818C220.737 63.678 220.66 63.2256 220.508 62.8246C220.359 62.4235 220.133 62.107 219.832 61.875C219.533 61.643 219.161 61.527 218.713 61.527C218.282 61.527 217.918 61.638 217.619 61.8601C217.324 62.0821 217.101 62.392 216.948 62.7898C216.796 63.1875 216.719 63.6515 216.719 64.1818ZM225.11 57.8182V68H223.623V57.8182H225.11ZM230.121 68.1541C229.369 68.1541 228.721 67.9934 228.177 67.6719C227.637 67.3471 227.219 66.8913 226.924 66.3047C226.633 65.7147 226.487 65.0237 226.487 64.2315C226.487 63.4493 226.633 62.7599 226.924 62.1634C227.219 61.5668 227.63 61.1011 228.157 60.7663C228.687 60.4316 229.307 60.2642 230.017 60.2642C230.447 60.2642 230.865 60.3355 231.269 60.478C231.674 60.6205 232.037 60.8442 232.358 61.1491C232.68 61.4541 232.933 61.8501 233.119 62.3374C233.304 62.8213 233.397 63.4096 233.397 64.1023V64.6293H227.327V63.5156H231.941C231.941 63.1245 231.861 62.7782 231.702 62.4766C231.543 62.1716 231.319 61.9313 231.031 61.7557C230.746 61.58 230.411 61.4922 230.026 61.4922C229.609 61.4922 229.244 61.5949 228.933 61.8004C228.625 62.0026 228.386 62.2678 228.217 62.5959C228.051 62.9207 227.968 63.2737 227.968 63.6548V64.5249C227.968 65.0353 228.058 65.4695 228.237 65.8274C228.419 66.1854 228.673 66.4588 228.997 66.6477C229.322 66.8333 229.702 66.9261 230.136 66.9261C230.418 66.9261 230.674 66.8864 230.906 66.8068C231.138 66.724 231.339 66.6013 231.508 66.4389C231.677 66.2765 231.806 66.076 231.896 65.8374L233.303 66.0909C233.19 66.5052 232.988 66.8681 232.696 67.1797C232.408 67.4879 232.045 67.7282 231.607 67.9006C231.173 68.0696 230.678 68.1541 230.121 68.1541ZM238.331 60.3636V61.5568H234.16V60.3636H238.331ZM235.279 58.5341H236.765V65.7578C236.765 66.0462 236.808 66.2633 236.894 66.4091C236.981 66.5516 237.092 66.6494 237.227 66.7024C237.367 66.7521 237.518 66.777 237.68 66.777C237.799 66.777 237.904 66.7687 237.993 66.7521C238.083 66.7356 238.152 66.7223 238.202 66.7124L238.47 67.9403C238.384 67.9735 238.262 68.0066 238.102 68.0398C237.943 68.0762 237.745 68.0961 237.506 68.0994C237.115 68.1061 236.75 68.0365 236.412 67.8906C236.074 67.7448 235.801 67.5194 235.592 67.2145C235.383 66.9096 235.279 66.5268 235.279 66.0661V58.5341ZM242.905 68.1541C242.152 68.1541 241.504 67.9934 240.961 67.6719C240.421 67.3471 240.003 66.8913 239.708 66.3047C239.416 65.7147 239.27 65.0237 239.27 64.2315C239.27 63.4493 239.416 62.7599 239.708 62.1634C240.003 61.5668 240.414 61.1011 240.941 60.7663C241.471 60.4316 242.091 60.2642 242.8 60.2642C243.231 60.2642 243.649 60.3355 244.053 60.478C244.457 60.6205 244.82 60.8442 245.142 61.1491C245.463 61.4541 245.717 61.8501 245.903 62.3374C246.088 62.8213 246.181 63.4096 246.181 64.1023V64.6293H240.111V63.5156H244.724C244.724 63.1245 244.645 62.7782 244.486 62.4766C244.327 62.1716 244.103 61.9313 243.815 61.7557C243.529 61.58 243.195 61.4922 242.81 61.4922C242.393 61.4922 242.028 61.5949 241.716 61.8004C241.408 62.0026 241.17 62.2678 241.001 62.5959C240.835 62.9207 240.752 63.2737 240.752 63.6548V64.5249C240.752 65.0353 240.841 65.4695 241.02 65.8274C241.203 66.1854 241.456 66.4588 241.781 66.6477C242.106 66.8333 242.485 66.9261 242.92 66.9261C243.201 66.9261 243.458 66.8864 243.69 66.8068C243.922 66.724 244.123 66.6013 244.292 66.4389C244.461 66.2765 244.59 66.076 244.68 65.8374L246.087 66.0909C245.974 66.5052 245.772 66.8681 245.48 67.1797C245.192 67.4879 244.829 67.7282 244.391 67.9006C243.957 68.0696 243.462 68.1541 242.905 68.1541ZM250.409 68.1491C249.792 68.1491 249.242 67.9917 248.758 67.6768C248.278 67.3587 247.9 66.9062 247.625 66.3196C247.353 65.7296 247.217 65.022 247.217 64.1967C247.217 63.3714 247.355 62.6655 247.63 62.0788C247.908 61.4922 248.289 61.0431 248.773 60.7315C249.257 60.42 249.806 60.2642 250.419 60.2642C250.893 60.2642 251.274 60.3438 251.562 60.5028C251.854 60.6586 252.079 60.8409 252.239 61.0497C252.401 61.2585 252.527 61.4425 252.616 61.6016H252.706V57.8182H254.192V68H252.741V66.8118H252.616C252.527 66.9742 252.398 67.1598 252.229 67.3686C252.063 67.5774 251.834 67.7597 251.542 67.9155C251.251 68.0713 250.873 68.1491 250.409 68.1491ZM250.737 66.8814C251.165 66.8814 251.526 66.7687 251.821 66.5433C252.119 66.3146 252.345 65.9981 252.497 65.5938C252.653 65.1894 252.731 64.7187 252.731 64.1818C252.731 63.6515 252.654 63.1875 252.502 62.7898C252.35 62.392 252.126 62.0821 251.831 61.8601C251.536 61.638 251.171 61.527 250.737 61.527C250.29 61.527 249.917 61.643 249.618 61.875C249.32 62.107 249.095 62.4235 248.942 62.8246C248.793 63.2256 248.719 63.678 248.719 64.1818C248.719 64.6922 248.795 65.1513 248.947 65.5589C249.1 65.9666 249.325 66.2898 249.623 66.5284C249.925 66.7637 250.296 66.8814 250.737 66.8814Z" fill="#7D7D7D"/>
<g clip-path="url(#clip0_1_798)">
<path d="M22 230C36 230 43.4133 228.935 49 228.735C59.5 228.735 66.4678 227.266 66.4678 227.266C66.4678 227.266 77.3108 225.013 84.0924 222.961C101.649 217.649 109.798 210.319 126.696 203.184C151.43 192.74 168.93 185.119 191.32 179.729C200.086 177.619 207.653 175.289 216.792 175.289C229.604 175.289 242.51 175.737 255.315 175.244C261.332 175.013 268.815 174.997 274.33 172.24C283.164 167.823 292.126 163.795 301.058 159.503C308.262 156.043 315.637 153.394 323.122 150.624C331.428 147.551 339.501 143.599 348.012 141.117C356.756 138.566 367.24 138.157 376.355 138.157C395.799 138.157 412.079 130.129 428.152 119.949C439.5 112.762 450 116 454.5 108.5C461 99.4999 481 95.4999 494 102.5" stroke="#6B8FDB" stroke-width="2" stroke-linecap="round"/>
<path d="M14 237.733C15.6606 239.266 15.6963 239.16 18.5623 239.254C30.0684 239.629 41.6787 239.405 53.1818 239.105C67.3128 238.736 81.7468 237.042 95.5541 233.886C109.24 230.758 121.992 226.471 134.527 220.14C144.252 215.228 153.007 209.135 162.378 203.68C173.972 196.931 186.234 191.62 198.458 186.147C202.957 184.132 207.61 182.469 212.354 181.137C220.521 178.844 228.559 175.75 236.984 174.517C261.367 170.949 285.958 179.292 310.279 180.183C324.277 180.696 341.316 181.715 352.442 171.565C359.06 165.528 363.674 157.85 370.989 152.452C378.692 146.768 386.595 143.267 396.365 143.267C400.818 143.267 404.446 143.208 408.621 141.121C415.895 137.483 422.972 133.731 429.971 129.551C434.87 126.625 439.527 124.052 444.999 122.305C450.663 120.496 458.257 117.242 464.381 118.16C471.387 119.211 476.849 127.885 481.497 132.533C487.048 138.083 494.139 140.708 501.983 141.091C504.606 141.219 507.768 141.679 509.944 140.047" stroke="#EA9745" stroke-width="2" stroke-linecap="round"/>
<path d="M20 194.5C52.5 194.5 132 179.5 170.5 169.5C209 159.5 215 141.5 236.5 131C258 120.5 272 128 297.5 124C323 120 358 99 387 92.5C416 86 480 72 509.5 69" stroke="#D9D9D9" stroke-width="2"/>
</g>
<defs>
<clipPath id="clip0_1_798">
<rect x="22" y="86" width="508" height="243" rx="4" fill="white"/>
</clipPath>
</defs>
</svg>
